<svg width="26" height="30" viewBox="0 0 26 30" fill="none" xmlns="http://www.w3.org/2000/svg">
<path d="M18.0294 4.7455C18.9789 3.63884 19.6377 2.11953 19.6377 0.600222C19.6377 0.393896 19.6184 0.168812 19.5796 0C18.0487 0.0562708 16.1884 0.994117 15.0839 2.26959C14.2119 3.22619 13.398 4.7455 13.398 6.28357C13.398 6.50866 13.4368 6.7525 13.4561 6.82752C13.553 6.84628 13.7081 6.86504 13.8631 6.86504C15.2583 6.86504 17.0023 5.9647 18.0294 4.7455ZM19.1145 7.1839C16.7892 7.1839 14.9095 8.55316 13.7081 8.55316C12.4291 8.55316 10.7239 7.25893 8.70854 7.25893C4.89107 7.25893 0.996094 10.3351 0.996094 16.0934C0.996094 19.7135 2.44944 23.5024 4.21284 25.9596C5.7437 28.0416 7.08079 29.7297 8.97983 29.7297C10.8789 29.7297 11.7315 28.5105 14.0956 28.5105C16.4791 28.5105 17.0217 29.6922 19.1145 29.6922C21.2073 29.6922 22.5832 27.854 23.8815 26.0346C25.3542 23.9526 25.9743 21.9269 25.9937 21.8143C25.8774 21.7768 21.8856 20.22 21.8856 15.7933C21.8856 11.9857 25.0248 10.2788 25.1992 10.1475C23.1451 7.25893 19.9865 7.1839 19.1145 7.1839Z" fill="white"/>
</svg>
