<svg width="35" height="33" viewBox="0 0 35 33" fill="none" xmlns="http://www.w3.org/2000/svg">
<ellipse cx="17.5" cy="16.1759" rx="17.5" ry="16.1759" fill="white"/>
<path d="M24.6754 11.5639C24.6754 10.3529 23.5193 9.2843 22.2091 9.2843H12.2668C10.9566 9.2843 9.80048 10.3529 9.80048 11.5639V20.7538C9.80048 21.9648 10.9566 23.0334 12.2668 23.0334H17.2765V17.833H15.4267V15.5533H17.2765V14.6272C17.2765 13.06 18.5096 11.7064 20.0511 11.7064H22.0549V13.9861H20.0511C19.8198 13.9861 19.5886 14.1998 19.5886 14.6272V15.5533H22.0549V17.833H19.5886V23.0334H22.2091C23.5193 23.0334 24.6754 21.9648 24.6754 20.7538V11.5639Z" fill="#8253D8"/>
</svg>
