<svg width="35" height="33" viewBox="0 0 35 33" fill="none" xmlns="http://www.w3.org/2000/svg">
<ellipse cx="17.5" cy="16.1757" rx="17.5" ry="16.1757" fill="white"/>
<path d="M23.2605 9.70593H12.6181C11.4166 9.70593 10.5011 10.552 10.5011 11.6625V21.4984C10.5011 22.609 11.4166 23.4551 12.6181 23.4551H23.2605C24.4621 23.4551 25.3776 22.609 25.3776 21.4984V11.6625C25.3776 10.552 24.4621 9.70593 23.2605 9.70593ZM17.9393 20.7052C20.3997 20.7052 22.4023 18.9073 22.4023 16.7391C22.4023 16.369 22.345 15.9459 22.2306 15.6286H23.4894V21.234C23.4894 21.4984 23.2605 21.7629 22.9172 21.7629H12.9614C12.6754 21.7629 12.3893 21.5513 12.3893 21.234V15.5757H13.7053C13.5908 15.9459 13.5336 16.3161 13.5336 16.6863C13.4764 18.9073 15.479 20.7052 17.9393 20.7052ZM17.9393 19.1188C16.3372 19.1188 15.0785 17.9554 15.0785 16.5276C15.0785 15.0998 16.3372 13.9364 17.9393 13.9364C19.5414 13.9364 20.8002 15.0998 20.8002 16.5276C20.8002 18.0083 19.5414 19.1188 17.9393 19.1188ZM23.4322 13.4605C23.4322 13.7778 23.1461 14.0422 22.8028 14.0422H21.2007C20.8574 14.0422 20.5713 13.7778 20.5713 13.4605V12.0327C20.5713 11.7154 20.8574 11.451 21.2007 11.451H22.8028C23.1461 11.451 23.4322 11.7154 23.4322 12.0327V13.4605Z" fill="#8253D8"/>
</svg>
