<svg width="35" height="33" viewBox="0 0 35 33" fill="none" xmlns="http://www.w3.org/2000/svg">
<ellipse cx="17.5" cy="16.1757" rx="17.5" ry="16.1757" fill="white"/>
<path d="M26.7773 12.0514C26.1648 12.2941 25.4648 12.4558 24.7648 12.5367C25.4648 12.1323 26.0773 11.4853 26.3398 10.7574C25.6398 11.1618 24.9398 11.4044 24.0648 11.5662C23.4523 10.9192 22.4898 10.5148 21.5273 10.5148C19.6023 10.5148 18.0273 11.9706 18.0273 13.7499C18.0273 13.9925 18.0273 14.2351 18.1148 14.4778C15.2273 14.316 12.6023 13.022 10.8523 11.0809C10.5898 11.5662 10.4148 12.1323 10.4148 12.6985C10.4148 13.8308 11.0273 14.8013 11.9898 15.3674C11.3773 15.3674 10.8523 15.2057 10.4148 14.963C10.4148 16.4997 11.6398 17.8746 13.2148 18.1173C12.9523 18.1981 12.6023 18.1981 12.2523 18.1981C11.9898 18.1981 11.8148 18.1981 11.5523 18.1173C11.9898 19.4113 13.3023 20.3818 14.8773 20.3818C13.6523 21.2715 12.1648 21.7568 10.5023 21.7568C10.2398 21.7568 9.97726 21.7568 9.62726 21.6759C11.2023 22.5655 13.0398 23.1317 15.0523 23.1317C21.5273 23.1317 25.0273 18.1981 25.0273 13.9116V13.5072C25.7273 13.2646 26.3398 12.6985 26.7773 12.0514Z" fill="#8253D8"/>
</svg>
